<svg xmlns="http://www.w3.org/2000/svg" width="160" height="900" viewBox="0 0 160 900">
  <defs>
    <style>
      .a {
        fill: none;
      }

      .b {
        fill: #fff2e6;
      }

      .c {
        fill: #fff;
      }

      .d {
        fill: #f4cba2;
      }

      .e {
        fill: #a4e6ff;
      }

      .f {
        fill: #fdebac;
      }

      .g {
        fill: #c9daf8;
      }

      .h {
        fill: #fbdbeb;
      }

      .i {
        fill: #b5eba2;
      }

      .j {
        fill: #f8b5bd;
      }

      .k {
        fill: #b9aaed;
      }

      .l {
        fill: #fee1c1;
      }
    </style>
  </defs>
  <rect class="a" width="160" height="900"/>
  <g>
    <g>
      <path class="b" d="M89.927,117.6171a35.607,35.607,0,0,1-41.7816-47.845,35.2028,35.2028,0,0,1-.4744-37.286v-.0023a35.1947,35.1947,0,0,1,33.0124-17.269A35.244,35.244,0,0,1,116.0346,3.2437h0A35.2018,35.2018,0,0,1,142.6689,29.34a35.6127,35.6127,0,0,1,5.7142,63.2826A35.6346,35.6346,0,0,1,89.927,117.6171Z"/>
      <path class="c" d="M127.7737,125.2329a37.7121,37.7121,0,0,0,22.8538-31.2574,37.958,37.958,0,0,0-5.9819-66.3528A37.9711,37.9711,0,0,0,79.6938,12.8a37.9734,37.9734,0,0,0-34.16,57.2,37.9556,37.9556,0,0,0,43.821,50.158A37.8251,37.8251,0,0,0,127.7737,125.2329ZM48.9046,74.8261a34.2975,34.2975,0,0,0,4.3031,4.3874A30.8312,30.8312,0,0,0,68.1068,94.5461a30.8169,30.8169,0,0,0,13.6685,17.12,30.406,30.406,0,0,0,8.5028,3.4272c-.3159.0883-.6187.1937-.9379.2728a33.3155,33.3155,0,0,1-40.4356-40.54ZM99.5563,38.0812a26.8875,26.8875,0,0,1,27.4521,36.7131c-8.6275-13.9482-25.9-24.8372-50.9552-17.105A26.9627,26.9627,0,0,1,99.5563,38.0812ZM71.5641,56.3577a15.3871,15.3871,0,0,1-2.7632-4.8869,19.4081,19.4081,0,0,1-.9279-8.1466,26.3979,26.3979,0,0,1,8.9407-17.2559A25.7455,25.7455,0,0,1,91.25,19.8777a26.47,26.47,0,0,1,14.846,2.9538,22.94,22.94,0,0,0-4.4487,2.6294A19.7733,19.7733,0,0,0,95.1928,33.81l-.0934.2634A31.67,31.67,0,0,0,71.5641,56.3577ZM76.41,62.4561a50.0661,50.0661,0,0,1,16.5758-2.72c-4.3044,8.1478-3.2284,20.9924,2.6389,31.3348A26.7645,26.7645,0,0,1,75.1688,62.4734,2.2849,2.2849,0,0,0,76.41,62.4561Zm21.815-2.2667a33.81,33.81,0,0,1,10.7308,3.6051c-1.4906,5.73-8.0006,13.6725-13.2777,13.79-1.2729-6.8016-.5081-13.4219,2.5469-17.3956Zm26.2215,19.536a26.862,26.862,0,0,1-22.7836,12.1257,34.6966,34.6966,0,0,1-4.817-9.6745c7.0048-.9308,13.8364-8.9229,16.2127-15.785A40.1618,40.1618,0,0,1,124.4463,79.7254ZM121.538,89.7272a15.2187,15.2187,0,0,1-.6477,5.5736,19.0556,19.0556,0,0,1-4.0125,7.1109,26.0145,26.0145,0,0,1-17.3557,8.7142,25.3831,25.3831,0,0,1-15.358-3.5116A26.7306,26.7306,0,0,1,73.91,96.5188a22.55,22.55,0,0,0,5.1333.4766,19.76,19.76,0,0,0,10.158-2.9472l.19-.1319a31.4933,31.4933,0,0,0,32.1459-4.1891ZM55.858,61.16a26.397,26.397,0,0,1,7.3976-13.2043,22.0763,22.0763,0,0,0,1.1258,5.069,19.5594,19.5594,0,0,0,5.88,8.6806l.2519.1956A31.391,31.391,0,0,0,84.4352,91.1961a15.3032,15.3032,0,0,1-5.49,1.1154,19.8987,19.8987,0,0,1-8.0246-1.5891A26.1321,26.1321,0,0,1,57.2729,76.8642,25.5276,25.5276,0,0,1,55.8584,61.16ZM76.1411,17.499a33.498,33.498,0,0,0-2.8492,5.49,30.6241,30.6241,0,0,0-9.9336,18.8244A30.901,30.901,0,0,0,51.2847,60.14a30.4332,30.4332,0,0,0-.6387,9.1883c-.183-.2707-.3786-.5308-.5528-.807a32.6893,32.6893,0,0,1-.4142-34.8341A32.5794,32.5794,0,0,1,76.1414,17.499Zm62.9443,8.2043a34.9186,34.9186,0,0,0-6.0481-1.0186,30.7483,30.7483,0,0,0-21.0758-3.6458,30.8663,30.8663,0,0,0-21.1578-5.8253,30.4418,30.4418,0,0,0-8.9,2.2478c.204-.26.3888-.5265.6-.78a33.3424,33.3424,0,0,1,56.5816,9.022Zm-1.82,8.3669a25.4427,25.4427,0,0,1,4.2231,6.7078,26.9382,26.9382,0,0,1,1.7795,15.0641,23.2323,23.2323,0,0,0-3.9059-3.4468,20.0562,20.0562,0,0,0-9.9955-3.55l-.1978-.0029a31.6218,31.6218,0,0,0-28.4752-15.49,15.4741,15.4741,0,0,1,3.7869-4.1592,19.4814,19.4814,0,0,1,7.4646-3.3957,26.3709,26.3709,0,0,1,19.192,3.1819,25.4553,25.4553,0,0,1,6.1287,5.0908Zm13.46,54.0388a34.7924,34.7924,0,0,0-.8875-6.0438,30.8554,30.8554,0,0,0-3.04-21.1938A30.9145,30.9145,0,0,0,145.7914,38.92a29.72,29.72,0,0,0-4.8628-7.7389c.2993.1109.6015.2007.9.3209a32.6478,32.6478,0,0,1,20.8215,27.94A32.5767,32.5767,0,0,1,150.7253,88.109Zm-8.5058.8157a25.5474,25.5474,0,0,1-5.1294,6.1367,26.8038,26.8038,0,0,1-13.7456,6.312,22.2947,22.2947,0,0,0,2.03-4.7175,19.64,19.64,0,0,0,.3459-10.6024l-.07-.2372a31.3,31.3,0,0,0,5.96-31.8579,15.4809,15.4809,0,0,1,5.0833,2.2887A19.7678,19.7678,0,0,1,142.26,62.31a26.4928,26.4928,0,0,1,2.9068,19.2811,24.6558,24.6558,0,0,1-2.9469,7.3337ZM94.9912,118.4489a34.5593,34.5593,0,0,0,5.5168-2.7328,30.8867,30.8867,0,0,0,19.163-9.4356,30.7617,30.7617,0,0,0,20.5011-7.6911,30.1191,30.1191,0,0,0,5.9191-7.03c-.0132.3136-.0056.6253-.0253.9418A33.327,33.327,0,0,1,94.9913,118.449Z"/>
    </g>
    <g>
      <path class="b" d="M135.27,447.31A30.1309,30.1309,0,0,1,99.9146,406.823a29.7887,29.7887,0,0,1-.4015-31.552v-.002a29.7821,29.7821,0,0,1,27.9353-14.6129,29.8238,29.8238,0,0,1,29.9144-10.13h0a29.788,29.788,0,0,1,22.538,22.0829,30.1356,30.1356,0,0,1,4.8354,53.55,30.1542,30.1542,0,0,1-49.4658,21.15Z"/>
      <path class="c" d="M167.2963,453.7543a31.9126,31.9126,0,0,0,19.3391-26.45,32.12,32.12,0,0,0-5.0619-56.148,32.1314,32.1314,0,0,0-54.9626-12.5429,32.1333,32.1333,0,0,0-28.9063,48.4027A32.1181,32.1181,0,0,0,134.7863,449.46,32.0079,32.0079,0,0,0,167.2963,453.7543ZM100.5569,411.1a29.0377,29.0377,0,0,0,3.6413,3.7128,26.09,26.09,0,0,0,12.6081,12.9737,26.0764,26.0764,0,0,0,11.5663,14.4873,25.726,25.726,0,0,0,7.1951,2.9c-.2673.0747-.5236.1639-.7935.2308a28.1917,28.1917,0,0,1-34.2169-34.3052Zm42.862-31.0935a22.7523,22.7523,0,0,1,23.23,31.0668c-7.3007-11.8027-21.9171-21.0173-43.1186-14.4743A22.8159,22.8159,0,0,1,143.4189,380.0061Zm-23.6872,15.4657a13.0176,13.0176,0,0,1-2.3383-4.1354,16.4221,16.4221,0,0,1-.7852-6.8936,22.3384,22.3384,0,0,1,7.5656-14.6021,21.7862,21.7862,0,0,1,12.2163-5.2385,22.4,22.4,0,0,1,12.5626,2.5,19.4146,19.4146,0,0,0-3.7646,2.225,16.7341,16.7341,0,0,0-5.462,7.0648l-.079.2229a26.8,26.8,0,0,0-19.9155,18.8568Zm4.1,5.16a42.3655,42.3655,0,0,1,14.0266-2.3015c-3.6424,6.8946-2.7319,17.7638,2.233,26.5156a22.6485,22.6485,0,0,1-17.31-24.199,1.9341,1.9341,0,0,0,1.0509-.0152Zm18.46-1.918a28.612,28.612,0,0,1,9.0805,3.0506c-1.2613,4.8488-6.77,11.57-11.2356,11.67-1.0768-5.7562-.43-11.3584,2.1555-14.7209Zm22.1888,16.5318a22.7308,22.7308,0,0,1-19.28,10.2609,29.3548,29.3548,0,0,1-4.0762-8.1867c5.9275-.7876,11.7084-7.55,13.7193-13.3573a33.987,33.987,0,0,1,9.6372,11.283Zm-2.461,8.4636a12.8811,12.8811,0,0,1-.5482,4.7164,16.1227,16.1227,0,0,1-3.3954,6.0173,22.0135,22.0135,0,0,1-14.6865,7.374,21.48,21.48,0,0,1-12.996-2.9715,22.62,22.62,0,0,1-8.6767-9.3891,19.0888,19.0888,0,0,0,4.3439.4033,16.7212,16.7212,0,0,0,8.5957-2.4935l.1611-.1117a26.65,26.65,0,0,0,27.202-3.5448Zm-55.5781-24.1731a22.3363,22.3363,0,0,1,6.26-11.1738,18.6726,18.6726,0,0,0,.9527,4.2894,16.5524,16.5524,0,0,0,4.976,7.3457l.2131.1655a26.5641,26.5641,0,0,0,11.7805,24.7893,12.9515,12.9515,0,0,1-4.6459.9438,16.8393,16.8393,0,0,1-6.79-1.3447,22.1131,22.1131,0,0,1-11.5486-11.7266,21.6,21.6,0,0,1-1.1969-13.2886ZM123.605,362.59a28.3483,28.3483,0,0,0-2.4111,4.6454,25.9144,25.9144,0,0,0-8.4061,15.9295,26.1487,26.1487,0,0,0-10.2167,15.508,25.75,25.75,0,0,0-.54,7.7752c-.1548-.2291-.32-.4492-.4679-.6829A28.2107,28.2107,0,0,1,123.605,362.59Zm53.2638,6.9425a29.5511,29.5511,0,0,0-5.118-.862,26.02,26.02,0,0,0-17.8345-3.0851,26.1186,26.1186,0,0,0-17.9037-4.9294,25.7613,25.7613,0,0,0-7.5316,1.9021c.1727-.22.329-.4455.5081-.66a28.2144,28.2144,0,0,1,47.88,7.6344Zm-1.54,7.08a21.53,21.53,0,0,1,3.5736,5.6761,22.7934,22.7934,0,0,1,1.5058,12.7474,19.6506,19.6506,0,0,0-3.3051-2.9167,16.9727,16.9727,0,0,0-8.4582-3.004l-.1674-.0024a26.7585,26.7585,0,0,0-24.0959-13.1079,13.0926,13.0926,0,0,1,3.2045-3.52,16.4861,16.4861,0,0,1,6.3165-2.8734,22.3145,22.3145,0,0,1,16.24,2.6925,21.5406,21.5406,0,0,1,5.186,4.3083Zm11.39,45.7279a29.4209,29.4209,0,0,0-.751-5.1142,26.1082,26.1082,0,0,0-2.5725-17.9343,26.16,26.16,0,0,0-.8517-18.5758,25.1449,25.1449,0,0,0-4.1149-6.5486c.2533.0937.5089.17.7611.2714a28.2025,28.2025,0,0,1,7.529,47.9015Zm-7.1976.69a21.6147,21.6147,0,0,1-4.34,5.1929A22.6807,22.6807,0,0,1,163.55,433.564a18.8566,18.8566,0,0,0,1.7179-3.9919A16.6182,16.6182,0,0,0,165.56,420.6l-.0589-.2007a26.486,26.486,0,0,0,5.0434-26.9583,13.0936,13.0936,0,0,1,4.3015,1.9367,16.7251,16.7251,0,0,1,4.71,5.13,22.4175,22.4175,0,0,1,2.4595,16.3158,20.8556,20.8556,0,0,1-2.4949,6.2062Zm-39.9649,24.9837a29.2627,29.2627,0,0,0,4.6684-2.3125,26.1365,26.1365,0,0,0,16.2157-7.9845,26.03,26.03,0,0,0,17.3482-6.5083,25.488,25.488,0,0,0,5.0088-5.9488c-.0111.2653-.0048.5291-.0215.7969a28.2013,28.2013,0,0,1-43.22,21.9572Z"/>
    </g>
    <g>
      <path class="b" d="M45.2656,379.9461A25.7571,25.7571,0,0,1,8.821,351.9623a25.4651,25.4651,0,0,1-5.6454-26.3771v-.0015A25.4588,25.4588,0,0,1,24.13,308.6361a25.4947,25.4947,0,0,1,23.3675-13.5235h0a25.4644,25.4644,0,0,1,22.6052,14.7161,25.7614,25.7614,0,0,1,13.0629,44.068,25.7773,25.7773,0,0,1-37.9,26.05Z"/>
      <path class="c" d="M73.1917,379.9592A27.28,27.28,0,0,0,84.95,354.5367a27.4579,27.4579,0,0,0-13.69-46.2073,27.4674,27.4674,0,0,0-48.1759-1.2647A27.4692,27.4692,0,0,0,7.0012,352.4961a27.456,27.456,0,0,0,38.22,29.3341A27.3615,27.3615,0,0,0,73.1917,379.9592Zm-63.1127-24.52a24.8072,24.8072,0,0,0,3.6765,2.499,22.3021,22.3021,0,0,0,12.75,8.7526A22.2917,22.2917,0,0,0,38.637,376.8861a21.991,21.991,0,0,0,6.5183,1.22c-.2115.1076-.4112.2255-.6263.327a23.5846,23.5846,0,0,1-25.0427-2.62,23.57,23.57,0,0,1-9.4073-20.3741Zm30.6917-33.272a19.45,19.45,0,0,1,24.6969,22.1289c-8.1047-8.6638-21.9056-13.9274-38.5741-4.8763a19.5042,19.5042,0,0,1,13.8772-17.2532ZM23.52,339.1143a11.1326,11.1326,0,0,1-2.6555-3.0725,14.0408,14.0408,0,0,1-1.8183-5.6457,19.0961,19.0961,0,0,1,3.884-13.5113,18.6247,18.6247,0,0,1,9.3574-6.446,19.1471,19.1471,0,0,1,10.95-.0189,16.5927,16.5927,0,0,0-2.7808,2.4982,14.3045,14.3045,0,0,0-3.3892,6.84l-.0287.2A22.91,22.91,0,0,0,23.52,339.1143Zm4.305,3.6348a36.2166,36.2166,0,0,1,11.3686-4.289c-1.8927,6.3914.6993,15.3479,6.3331,21.8476a19.3611,19.3611,0,0,1-18.5794-17.3692A1.6545,1.6545,0,0,0,27.8251,342.7491Zm15.1489-4.7136a24.4575,24.4575,0,0,1,8.1239,1.029c-.2412,4.2762-3.7275,10.836-7.4534,11.6709C41.7733,346.0929,41.3731,341.2887,42.974,338.0355Zm21.3786,10.1223A19.4316,19.4316,0,0,1,49.92,360.0017a25.1025,25.1025,0,0,1-4.794-6.1756c4.8355-1.6575,8.5427-8.2983,9.251-13.5035A29.0549,29.0549,0,0,1,64.3526,348.1578Zm-.6386,7.5077a11.0059,11.0059,0,0,1,.3341,4.0452,13.7826,13.7826,0,0,1-1.8333,5.6145,18.8181,18.8181,0,0,1-11.0685,8.6514,18.3615,18.3615,0,0,1-11.3923-.3039,19.3363,19.3363,0,0,1-8.8519-6.4092,16.3134,16.3134,0,0,0,3.7085-.3929,14.2952,14.2952,0,0,0,6.7847-3.5365l.1163-.1207a22.7815,22.7815,0,0,0,22.2022-7.5479ZM13.0651,344.7567a19.0956,19.0956,0,0,1,3.3662-10.4182,15.9685,15.9685,0,0,0,1.52,3.4348,14.1507,14.1507,0,0,0,5.4064,5.3192l.2065.1029A22.7079,22.7079,0,0,0,37.6087,361.99a11.0711,11.0711,0,0,1-3.735,1.5728,14.3951,14.3951,0,0,1-5.9175.0155,18.9032,18.9032,0,0,1-11.6522-7.8852,18.4645,18.4645,0,0,1-3.239-10.9361Zm8.1687-33.8537a24.247,24.247,0,0,0-1.2392,4.2992,22.1527,22.1527,0,0,0-4.365,14.7652,22.3526,22.3526,0,0,0-5.9533,14.7167,22.0157,22.0157,0,0,0,.8552,6.6075c-.1683-.1659-.3441-.3226-.507-.4936a24.1156,24.1156,0,0,1,11.21-39.8949Zm45.81-3.1433a25.2631,25.2631,0,0,0-4.4345.1387,22.2426,22.2426,0,0,0-15.4666.4151,22.3276,22.3276,0,0,0-15.835-1.119,22.02,22.02,0,0,0-5.9923,2.8614c.1077-.2131.2008-.4287.3147-.6387a23.6787,23.6787,0,0,1,21.8276-12.61A23.5715,23.5715,0,0,1,67.0436,307.76Zm-.1,6.1932a18.4009,18.4009,0,0,1,3.95,4.156,19.4868,19.4868,0,0,1,3.4069,10.43A16.7974,16.7974,0,0,0,71.04,326.65a14.5091,14.5091,0,0,0-7.5945-1.0945l-.1407.0262A22.8741,22.8741,0,0,0,40.9038,318.65a11.192,11.192,0,0,1,2.0936-3.489A14.0937,14.0937,0,0,1,47.808,311.69a19.0757,19.0757,0,0,1,14.0644-.4759,18.4136,18.4136,0,0,1,5.0716,2.7386Zm17.24,36.4092a25.1639,25.1639,0,0,0-1.49-4.16A22.3188,22.3188,0,0,0,77.52,331.6037a22.3619,22.3619,0,0,0-3.8393-15.4253,21.4944,21.4944,0,0,0-4.5507-4.7963c.2282.0361.4552.0568.6837.1a24.109,24.109,0,0,1,14.37,38.88Zm-5.9164,1.79a18.4754,18.4754,0,0,1-2.7642,5.0826,19.39,19.39,0,0,1-8.85,6.4337,16.1221,16.1221,0,0,0,.768-3.6348,14.2078,14.2078,0,0,0-1.2642-7.5687l-.0832-.1583a22.6416,22.6416,0,0,0-.3089-23.4429,11.1953,11.1953,0,0,1,3.931.8995,14.2979,14.2979,0,0,1,4.8107,3.5073,19.1652,19.1652,0,0,1,4.8066,13.2609,17.835,17.835,0,0,1-1.0457,5.62ZM48.9763,379.8153A24.9924,24.9924,0,0,0,52.5,377.0917a22.3421,22.3421,0,0,0,12.2474-9.42,22.2524,22.2524,0,0,0,13.4448-8.3736,21.7848,21.7848,0,0,0,3.197-5.8287c.0354.2243.085.4443.1162.6715a24.1079,24.1079,0,0,1-32.5289,25.6744Z"/>
    </g>
    <g>
      <path class="b" d="M91.8312,747.0661a32.5518,32.5518,0,0,1-53.4164-22.7777,32.1825,32.1825,0,0,1-15.2135-30.507L23.2,693.78a32.1748,32.1748,0,0,1,20.3123-27.34,32.22,32.22,0,0,1,24.3438-23.909h0a32.1815,32.1815,0,0,1,32.3,10.8955,32.5571,32.5571,0,0,1,29.8616,49.8249,32.5769,32.5769,0,0,1-38.1867,43.8151Z"/>
      <path class="c" d="M126.0155,738.29a34.4761,34.4761,0,0,0,6.388-34.8175,34.7008,34.7008,0,0,0-31.3023-52.2459A34.713,34.713,0,0,0,41.738,664.8449a34.7153,34.7153,0,0,0-5.3824,60.6695A34.6987,34.6987,0,0,0,92.37,749.3861,34.58,34.58,0,0,0,126.0155,738.29ZM41.0489,728.1466a31.347,31.347,0,0,0,5.2866,1.9012,28.1851,28.1851,0,0,0,18.3608,6.699,28.1722,28.1722,0,0,0,18.0584,8.66,27.799,27.799,0,0,0,8.3623-.5588c-.225.1982-.4325.4054-.6637.5974A30.4569,30.4569,0,0,1,41.049,728.1462ZM68.14,677.761a24.5805,24.5805,0,0,1,37.1945,19.31c-12.6474-8.0527-31.196-10.15-48.7481,6.1753A24.6492,24.6492,0,0,1,68.14,677.7609ZM52.3611,703.9349a14.0663,14.0663,0,0,1-4.2175-2.9247,17.7425,17.7425,0,0,1-4.0024-6.3377,24.1328,24.1328,0,0,1,.5-17.76,23.5376,23.5376,0,0,1,9.4237-10.8355,24.2008,24.2008,0,0,1,13.3959-3.47,20.9674,20.9674,0,0,0-2.6172,3.9333,18.08,18.08,0,0,0-1.9948,9.439l.0279.254A28.9534,28.9534,0,0,0,52.3611,703.9349Zm6.4134,3.0936A45.7675,45.7675,0,0,1,71.339,698.2c-.3045,8.4187,5.6876,18.5651,14.6293,24.7468a24.4675,24.4675,0,0,1-28.2084-15.41,2.0889,2.0889,0,0,0,1.0146-.5083ZM75.8322,696.49a30.9075,30.9075,0,0,1,10.2672-1.2981c1.0508,5.31-1.151,14.4362-5.4484,16.6311C76.8991,706.73,74.897,700.9761,75.8322,696.49Zm29.3531,5.6589a24.5577,24.5577,0,0,1-13.9359,19.04,31.7185,31.7185,0,0,1-7.8115-6.05c5.3965-3.5509,7.8433-12.8461,7.0718-19.44A36.72,36.72,0,0,1,105.1853,702.1491Zm1.5818,9.39a13.91,13.91,0,0,1,1.6825,4.8458,17.42,17.42,0,0,1-.4763,7.449A23.7819,23.7819,0,0,1,97.15,737.9074,23.2049,23.2049,0,0,1,83.11,741.1221a24.4392,24.4392,0,0,1-12.852-5.0579,20.619,20.619,0,0,0,4.4154-1.6485,18.0649,18.0649,0,0,0,7.1908-6.4644l.1043-.1844A28.7905,28.7905,0,0,0,106.7671,711.5392Zm-65.4262,2.593a24.1322,24.1322,0,0,1,.84-13.8111,20.1738,20.1738,0,0,0,2.9421,3.7254,17.88,17.88,0,0,0,8.2917,4.8085l.2851.0609A28.6976,28.6976,0,0,0,76.8063,727.498a13.994,13.994,0,0,1-4.0764,3.1009,18.1933,18.1933,0,0,1-7.2379,1.8819,23.89,23.89,0,0,1-16.7441-5.983,23.3352,23.3352,0,0,1-7.4074-12.3656Zm-.6594-44.0069a30.6416,30.6416,0,0,0-.1633,5.652,27.9964,27.9964,0,0,0-.6943,19.4462A28.25,28.25,0,0,0,37.17,715.11a27.8221,27.8221,0,0,0,3.1269,7.8181c-.2582-.15-.5227-.2865-.776-.4446a30.4772,30.4772,0,0,1,1.1606-52.3585ZM95.761,651.8561a31.9173,31.9173,0,0,0-5.3839,1.5659,28.1106,28.1106,0,0,0-18.8,5.3771,28.2167,28.2167,0,0,0-19.7336,3.6155,27.8308,27.8308,0,0,0-6.4335,5.3886c.0648-.2947.1109-.5879.1842-.8808A30.4814,30.4814,0,0,1,95.761,651.8561Zm1.828,7.6116a23.255,23.255,0,0,1,6.1431,3.8432,24.6257,24.6257,0,0,1,7.4535,11.6939A21.232,21.232,0,0,0,106.6,673.72a18.337,18.337,0,0,0-9.64,1.0512l-.164.0763a28.908,28.908,0,0,0-29.6-1.4321,14.1488,14.1488,0,0,1,1.464-4.9295,17.8118,17.8118,0,0,1,4.7952-5.7629,24.1074,24.1074,0,0,1,17.0645-5.01,23.2654,23.2654,0,0,1,7.0693,1.7551Zm32.5629,39.1359a31.7927,31.7927,0,0,0-3.1333-4.6227,28.2069,28.2069,0,0,0-10.9281-16.2389,28.2614,28.2614,0,0,0-9.5553-17.6713,27.159,27.159,0,0,0-7.08-4.4378c.29-.0277.5749-.0739.8681-.0935a30.4687,30.4687,0,0,1,29.8283,43.0642Zm-6.678,4.0528a23.356,23.356,0,0,1-1.7831,7.0912,24.5045,24.5045,0,0,1-8.8067,10.6606,20.3743,20.3743,0,0,0-.2042-4.6906,17.9535,17.9535,0,0,0-3.93-8.8658l-.1516-.1676a28.6133,28.6133,0,0,0-7.7584-28.5958,14.15,14.15,0,0,1,5.0946-.1368,18.07,18.07,0,0,1,6.9922,2.7785,24.2191,24.2191,0,0,1,10.0578,14.7174,22.5366,22.5366,0,0,1,.4894,7.2092ZM96.3309,745.737a31.6018,31.6018,0,0,0,3.4552-4.4428,28.2365,28.2365,0,0,0,12.0246-15.3858,28.1217,28.1217,0,0,0,13.82-14.4815,27.5335,27.5335,0,0,0,2.0781-8.1405c.1139.2633.2439.517.3535.7852A30.4674,30.4674,0,0,1,96.3312,745.737Z"/>
    </g>
    <g>
      <g>
        <path class="d" d="M72.0215,601.7055a1.0892,1.0892,0,0,0-.796.3442c-21.5322,22.91-28.8067,43.4686-22.8938,64.6978,5.2075,18.6914,19.8077,35.0017,35.2658,52.27,36.206,40.4445,73.6444,82.2666-9.7437,159.3439a1.0927,1.0927,0,1,0,1.4833,1.6049h0c37.9516-35.08,54.4183-66.3043,50.3419-95.4588-3.6057-25.7855-22.3377-46.7111-40.453-66.9476-29.9953-33.5068-58.3271-65.1556-12.4084-114.0126a1.0929,1.0929,0,0,0-.796-1.8413Z"/>
        <path class="d" d="M100.0705,628.9093a1.0924,1.0924,0,0,0-.81,1.8263c21.9718,24.2528,25.0269,52.4095,23.7208,71.76-2.433,36.0539-20.5483,66.7962-36.3489,80.102a1.0932,1.0932,0,0,0,1.4086,1.6722c16.1421-13.5945,34.6447-44.9365,37.1215-81.6269,1.9133-28.3552-6.4827-53.7274-24.2822-73.3744A1.09,1.09,0,0,0,100.0705,628.9093Z"/>
        <path class="e" d="M146.0587,693.8977a20.1616,20.1616,0,0,0-5.2073,4.5162c-.8355,1.1084-1.8816,3.4451-3.666,3.6743a3.4133,3.4133,0,0,1-2.9143-.8811c-2.6387-2.8877-2.44-6.99-6.6294-11.1465a2.7672,2.7672,0,0,0-.7227-.5267c1.3484,3.49,3.7857,12.0557-1.853,19.3951a20.1612,20.1612,0,0,0-5.9043-3.5566c-1.3123-.4522-3.8579-.725-4.6272-2.3513a3.413,3.413,0,0,1-.0628-3.044c1.9312-3.4018,5.8943-4.48,8.5525-9.7492a2.7688,2.7688,0,0,0,.2776-.85c-2.9022,2.3608-10.2958,7.3259-19.0185,4.231a20.1559,20.1559,0,0,0,1.5581-6.7141c.0244-1.3879-.5027-3.8934.8061-5.1274a3.4126,3.4126,0,0,1,2.876-1c3.832.7852,6.082,4.2215,11.9146,5.1211a2.7678,2.7678,0,0,0,.8945.0012c-3.1421-2.03-10.1489-7.528-9.9011-16.78a20.163,20.163,0,0,0,6.8671-.5931c1.3274-.4055,3.5474-1.6812,5.1258-.8176a3.412,3.412,0,0,1,1.84,2.4258c.4374,3.8872-2.1352,7.0888-1.1886,12.914a2.7674,2.7674,0,0,0,.2771.8545c.9551-3.6064,4.0073-11.9777,12.8975-14.6052a20.1558,20.1558,0,0,0,2.686,6.3479c.7959,1.1369,2.6951,2.8541,2.3613,4.622a3.4122,3.4122,0,0,1-1.7385,2.4994c-3.5618,1.6172-7.4016.16-12.6492,2.86a2.7725,2.7725,0,0,0-.7246.5248C131.9207,685.9378,140.821,686.2668,146.0587,693.8977Z"/>
        <path class="d" d="M72.8326,599.0541a2.7772,2.7772,0,0,0-.4356.7812c3.3013-1.76,11.51-5.2135,19.4771-.5019a20.1681,20.1681,0,0,0-2.8181,6.29c-.29,1.3571-.2539,3.9173-1.7754,4.8773a3.4125,3.4125,0,0,1-3.0142.4295c-3.61-1.5061-5.1587-5.31-10.71-7.3128a2.7667,2.7667,0,0,0-.8777-.173c2.6941,2.596,8.5155,9.3362,6.4961,18.3687a20.1653,20.1653,0,0,0-6.8532-.7363c-1.3807.1433-3.8042.9691-5.1873-.1813a3.413,3.413,0,0,1-1.34-2.734c.317-3.8986,3.4566-6.5471,3.6455-12.4458a2.7726,2.7726,0,0,0-.1079-.8916C67.7019,608.18,63.1,615.81,53.8707,616.682a20.1566,20.1566,0,0,0-1.4175-6.7454c-.5627-1.2688-2.0971-3.3186-1.43-4.99a3.4128,3.4128,0,0,1,2.1861-2.1193c3.8059-.9034,7.2946,1.2641,12.9631-.379a2.7669,2.7669,0,0,0,.8147-.3782c-3.6953-.5127-12.3738-2.5322-16.0554-11.04a20.1561,20.1561,0,0,0,5.9773-3.4326c1.0327-.9273,2.508-3.02,4.3032-2.9022a3.4117,3.4117,0,0,1,2.6909,1.4241c2.0354,3.34,1.0523,7.3284,4.3665,12.2116a2.7659,2.7659,0,0,0,.6084.6558c-.6536-3.6835-1.4017-12.5583,5.5412-18.6789a20.167,20.167,0,0,0,5.1118,4.6239c1.201.6956,3.647,1.452,4.09,3.1957a3.4117,3.4117,0,0,1-.523,3C80.5494,594.0961,76.4527,594.393,72.8326,599.0541Z"/>
        <path class="d" d="M42.803,656.3362c-.1955,3.0557-3.3973,2.869-8.0209-.1263-3.1871-2.0647-10.3227-9.7647-8.44-19.8084,2.11,7.5676,6.3868,11.2711,11.9269,12.9731C43.8319,651.0834,45.5263,654.9361,42.803,656.3362Z"/>
        <path class="d" d="M106.0777,637.16c-.9128,3.227-3.9071,3.3933-7.5824-1.3491a50.6467,50.6467,0,0,1-7.9509-14.38,50.6394,50.6394,0,0,1,14.2793,8.1308C109.52,633.2961,109.3163,636.2882,106.0777,637.16Z"/>
        <path class="d" d="M53.699,655.1691c.9854,2.8992,3.7237,2.9089,6.85-1.59,2.1671-3.1184,3.3763-7.8959,4.5211-14.6942-3.7859,6.3827-7.5234,7.06-11.123,9.6666C49.51,651.7645,50.705,654.5274,53.699,655.1691Z"/>
        <path class="d" d="M39.2805,653.1935a.82.82,0,0,0-.2316,1.606c5.1915,1.5276,9.5741,12.8155,11.2239,17.0652a14.3673,14.3673,0,0,0,.9444,2.2089.82.82,0,0,0,1.3477-.9332c-.1078-.1787-.4418-1.0383-.764-1.869-1.8931-4.8746-6.3248-16.2889-12.2889-18.0448A.8352.8352,0,0,0,39.2805,653.1935Z"/>
        <path class="d" d="M56.4385,651.5544a.8153.8153,0,0,0-.3286.0688c-5.7987,2.5419-6.8648,14.8318-5.0528,22.1762a.82.82,0,0,0,1.5921-.3927c-1.8525-7.505-.3158-18.3383,4.118-20.282a.82.82,0,0,0-.3287-1.57Z"/>
      </g>
      <g>
        <path class="d" d="M72.0215,409.4991a1.0892,1.0892,0,0,0-.796.3442c-21.5322,22.91-28.8067,43.4687-22.8938,64.6977,5.2075,18.6915,19.8077,35.0017,35.2658,52.27,36.206,40.4445,73.6444,82.2666-9.7437,159.3439a1.0927,1.0927,0,0,0,1.4833,1.605c37.9516-35.08,54.4183-66.3044,50.3419-95.4587-3.6057-25.7857-22.3377-46.7111-40.453-66.9478C55.2306,491.8461,26.8988,460.1975,72.8176,411.34a1.0929,1.0929,0,0,0-.7961-1.8413Z"/>
        <path class="d" d="M100.0705,436.703a1.0924,1.0924,0,0,0-.81,1.8263c21.9718,24.2527,25.0269,52.41,23.7208,71.76-2.433,36.0539-20.5483,66.7962-36.3489,80.102a1.0932,1.0932,0,0,0,1.4086,1.6722c16.1421-13.5945,34.6447-44.9366,37.1215-81.6269,1.9133-28.3552-6.4827-53.7273-24.2822-73.3744A1.09,1.09,0,0,0,100.0705,436.703Z"/>
        <path class="f" d="M146.0587,501.6913a20.1654,20.1654,0,0,0-5.2073,4.5162c-.8355,1.1083-1.8816,3.4452-3.666,3.6743a3.4123,3.4123,0,0,1-2.9143-.8812c-2.6387-2.8876-2.44-6.99-6.6294-11.1464a2.765,2.765,0,0,0-.7227-.5267c1.3484,3.49,3.7857,12.0558-1.853,19.3951a20.1615,20.1615,0,0,0-5.9043-3.5567c-1.3123-.452-3.8579-.7249-4.6272-2.3512a3.4132,3.4132,0,0,1-.0628-3.0441c1.9312-3.4018,5.8943-4.48,8.5525-9.7491a2.7688,2.7688,0,0,0,.2776-.85c-2.9022,2.3609-10.2958,7.326-19.0185,4.2312a20.1565,20.1565,0,0,0,1.5581-6.7143c.0244-1.3878-.5027-3.8932.8061-5.1274a3.4129,3.4129,0,0,1,2.876-1c3.832.7852,6.082,4.2215,11.9146,5.1211a2.7678,2.7678,0,0,0,.8945.0012c-3.1421-2.03-10.1489-7.528-9.9011-16.78a20.1629,20.1629,0,0,0,6.8671-.5929c1.3274-.4056,3.5474-1.6813,5.1258-.8178a3.4128,3.4128,0,0,1,1.84,2.426c.4374,3.8872-2.1352,7.0888-1.1886,12.914a2.766,2.766,0,0,0,.2771.8544c.9551-3.6063,4.0073-11.9777,12.8975-14.6051a20.1558,20.1558,0,0,0,2.686,6.3479c.7959,1.1369,2.6951,2.8541,2.3613,4.6221a3.4118,3.4118,0,0,1-1.7385,2.4993c-3.5618,1.6172-7.4016.16-12.6492,2.86a2.768,2.768,0,0,0-.7243.5246C131.9211,493.7314,140.821,494.0605,146.0587,501.6913Z"/>
        <path class="g" d="M72.8326,406.8478a2.7805,2.7805,0,0,0-.4356.7811c3.3013-1.76,11.51-5.2134,19.4771-.502a20.1678,20.1678,0,0,0-2.8181,6.2906c-.29,1.3571-.2539,3.9172-1.7754,4.8773a3.4129,3.4129,0,0,1-3.0142.43c-3.61-1.5061-5.1587-5.31-10.71-7.3129a2.7638,2.7638,0,0,0-.8777-.1729c2.6941,2.596,8.5155,9.3362,6.4961,18.3687a20.1629,20.1629,0,0,0-6.8532-.7364c-1.3807.1433-3.8042.9691-5.1873-.1814a3.4131,3.4131,0,0,1-1.34-2.7339c.317-3.8988,3.4566-6.5471,3.6455-12.4458a2.773,2.773,0,0,0-.1079-.8916c-1.63,3.3561-6.2322,10.9856-15.4612,11.858a20.1566,20.1566,0,0,0-1.4175-6.7454c-.5627-1.2688-2.0971-3.3186-1.43-4.99a3.4124,3.4124,0,0,1,2.1861-2.1192c3.8059-.9035,7.2946,1.2641,12.9631-.379a2.7694,2.7694,0,0,0,.8147-.3782c-3.6953-.5127-12.3738-2.5322-16.0554-11.04a20.1615,20.1615,0,0,0,5.9773-3.4325c1.0327-.9274,2.508-3.02,4.3032-2.9024a3.4124,3.4124,0,0,1,2.6909,1.4242c2.0354,3.34,1.0523,7.3284,4.3665,12.2115a2.7673,2.7673,0,0,0,.6084.6557c-.6536-3.6836-1.4014-12.5581,5.5412-18.6787a20.1645,20.1645,0,0,0,5.1111,4.6236c1.201.6958,3.6471,1.4521,4.09,3.1958a3.4117,3.4117,0,0,1-.523,3C80.5494,401.89,76.4527,402.1868,72.8326,406.8478Z"/>
        <path class="d" d="M42.803,464.13c-.1955,3.0558-3.3973,2.8691-8.0209-.1263-3.1871-2.0648-10.3227-9.7647-8.44-19.8085,2.11,7.5677,6.3868,11.2712,11.9269,12.9732C43.8319,458.877,45.5263,462.73,42.803,464.13Z"/>
        <path class="d" d="M106.0777,444.9541c-.9128,3.2269-3.9071,3.3932-7.5824-1.3492a50.6454,50.6454,0,0,1-7.9509-14.38,50.6416,50.6416,0,0,1,14.2793,8.1307C109.52,441.09,109.3163,444.0819,106.0777,444.9541Z"/>
        <path class="d" d="M53.699,462.9628c.9854,2.8992,3.7237,2.9089,6.85-1.59,2.1671-3.1184,3.3763-7.8959,4.5211-14.6943-3.7859,6.3828-7.5234,7.06-11.123,9.6667C49.51,459.5582,50.705,462.321,53.699,462.9628Z"/>
        <path class="d" d="M39.2805,460.9871a.82.82,0,0,0-.2316,1.606c5.1915,1.5276,9.5741,12.8155,11.2239,17.0653a14.3673,14.3673,0,0,0,.9444,2.2089.82.82,0,0,0,1.3477-.9332c-.1078-.1788-.4418-1.0383-.764-1.8691-1.8931-4.8745-6.3248-16.2888-12.2889-18.0448A.8389.8389,0,0,0,39.2805,460.9871Z"/>
        <path class="d" d="M56.4385,459.3481a.8153.8153,0,0,0-.3286.0688c-5.7987,2.5419-6.8648,14.8317-5.0528,22.1761a.82.82,0,0,0,1.5921-.3927c-1.8525-7.505-.3158-18.3382,4.118-20.282a.82.82,0,0,0-.3287-1.57Z"/>
      </g>
      <g>
        <path class="d" d="M72.0215,217.2928a1.0892,1.0892,0,0,0-.796.3442c-21.5322,22.91-28.8067,43.4686-22.8938,64.6977,5.2075,18.6915,19.8077,35.0017,35.2658,52.27,36.206,40.4445,73.6444,82.2666-9.7437,159.3439a1.0927,1.0927,0,0,0,1.4749,1.6126l.0084-.0077c37.9516-35.08,54.4183-66.3043,50.3419-95.4588-3.6057-25.7856-22.3377-46.7111-40.453-66.9477C55.2306,299.64,26.8988,267.9912,72.8176,219.1341a1.093,1.093,0,0,0-.7961-1.8413Z"/>
        <path class="d" d="M100.0705,244.4966a1.0924,1.0924,0,0,0-.81,1.8264c21.9718,24.2527,25.0269,52.4094,23.7208,71.76-2.433,36.0539-20.5483,66.7963-36.3489,80.102a1.0932,1.0932,0,1,0,1.4086,1.6722h0c16.1421-13.5943,34.6447-44.9364,37.1215-81.6268,1.9133-28.3552-6.4827-53.7273-24.2822-73.3744A1.09,1.09,0,0,0,100.0705,244.4966Z"/>
        <path class="h" d="M146.0587,309.485a20.1632,20.1632,0,0,0-5.2073,4.5161c-.8355,1.1084-1.8816,3.4452-3.666,3.6743a3.412,3.412,0,0,1-2.9143-.8811c-2.6387-2.8877-2.44-6.99-6.6294-11.1464a2.7676,2.7676,0,0,0-.7227-.5268c1.3484,3.49,3.7857,12.0556-1.853,19.3952a20.1639,20.1639,0,0,0-5.9043-3.5568c-1.3123-.452-3.8579-.7249-4.6272-2.3511a3.4132,3.4132,0,0,1-.0628-3.0441c1.9312-3.4018,5.8943-4.48,8.5525-9.7491a2.7688,2.7688,0,0,0,.2776-.85c-2.9022,2.3609-10.2958,7.326-19.0185,4.2311a20.1565,20.1565,0,0,0,1.5581-6.7142c.0244-1.3878-.5027-3.8933.8061-5.1276a3.4137,3.4137,0,0,1,2.876-1c3.832.7852,6.082,4.2213,11.9146,5.121a2.765,2.765,0,0,0,.8945.0013c-3.1421-2.0306-10.1489-7.528-9.9011-16.78a20.1628,20.1628,0,0,0,6.8671-.5928c1.3274-.4057,3.5474-1.6814,5.1258-.818a3.4131,3.4131,0,0,1,1.84,2.4261c.4374,3.887-2.1352,7.0888-1.1886,12.914a2.766,2.766,0,0,0,.2771.8544c.9551-3.6063,4.0073-11.9777,12.8975-14.6051a20.1542,20.1542,0,0,0,2.686,6.3478c.7959,1.137,2.6951,2.8541,2.3613,4.6221a3.4114,3.4114,0,0,1-1.7385,2.4993c-3.5618,1.6172-7.4016.16-12.6492,2.86a2.7718,2.7718,0,0,0-.7246.5246C131.9207,301.5251,140.821,301.8542,146.0587,309.485Z"/>
        <path class="i" d="M72.8326,214.6414a2.7753,2.7753,0,0,0-.4356.7813c3.3013-1.76,11.51-5.2135,19.4771-.502a20.1692,20.1692,0,0,0-2.8181,6.29c-.29,1.3573-.2539,3.9175-1.7754,4.8774a3.4122,3.4122,0,0,1-3.0142.43c-3.61-1.5062-5.1587-5.31-10.71-7.3129a2.7675,2.7675,0,0,0-.8774-.1729c2.6938,2.5959,8.5151,9.3361,6.4958,18.3686a20.1653,20.1653,0,0,0-6.8532-.7363c-1.3807.1433-3.8042.9691-5.1873-.1813a3.4136,3.4136,0,0,1-1.34-2.7339c.317-3.8989,3.4566-6.5473,3.6455-12.4459a2.773,2.773,0,0,0-.1079-.8916c-1.63,3.356-6.2322,10.9856-15.4612,11.8579a20.1561,20.1561,0,0,0-1.4175-6.7454c-.5627-1.2688-2.0971-3.3185-1.43-4.99a3.4124,3.4124,0,0,1,2.1861-2.1192c3.8059-.9035,7.2946,1.2639,12.9631-.3791a2.7641,2.7641,0,0,0,.8147-.3781c-3.6953-.5127-12.3738-2.5323-16.0554-11.04a20.16,20.16,0,0,0,5.9766-3.4324c1.0327-.9274,2.508-3.02,4.3032-2.9023a3.4126,3.4126,0,0,1,2.6909,1.4241c2.0355,3.34,1.0523,7.3284,4.3666,12.2116a2.7654,2.7654,0,0,0,.6083.6558c-.6536-3.6835-1.4017-12.5582,5.5412-18.6788A20.17,20.17,0,0,0,79.53,200.52c1.201.6955,3.6471,1.4519,4.09,3.1957a3.4114,3.4114,0,0,1-.523,2.9994C80.5494,209.6831,76.4527,209.9805,72.8326,214.6414Z"/>
        <path class="d" d="M42.803,271.9235c-.1955,3.0558-3.3973,2.869-8.0209-.1263-3.1871-2.0648-10.3227-9.7648-8.44-19.8085,2.11,7.5677,6.3868,11.2711,11.9269,12.9731C43.8319,266.6707,45.5263,270.5233,42.803,271.9235Z"/>
        <path class="d" d="M106.0777,252.7478c-.9128,3.2269-3.9071,3.3932-7.5824-1.3492a50.6492,50.6492,0,0,1-7.9509-14.38,50.64,50.64,0,0,1,14.2793,8.1307C109.52,248.8836,109.3163,251.8761,106.0777,252.7478Z"/>
        <path class="d" d="M53.699,270.7561c.9854,2.8992,3.7237,2.9089,6.85-1.59,2.1671-3.1184,3.3763-7.8958,4.5211-14.6942-3.7859,6.3828-7.5234,7.06-11.123,9.6667C49.51,267.3519,50.705,270.1147,53.699,270.7561Z"/>
        <path class="d" d="M39.2805,268.7808a.82.82,0,0,0-.2316,1.606c5.1915,1.5276,9.5741,12.8155,11.2239,17.0652a14.3673,14.3673,0,0,0,.9444,2.2089.82.82,0,0,0,1.3477-.9332c-.1078-.1787-.4418-1.0382-.764-1.869-1.8931-4.8745-6.3248-16.2889-12.2889-18.0448A.8389.8389,0,0,0,39.2805,268.7808Z"/>
        <path class="d" d="M56.4385,267.1417a.8154.8154,0,0,0-.3286.0689c-5.7987,2.5418-6.8648,14.8317-5.0528,22.1761a.82.82,0,0,0,1.5921-.3927c-1.8525-7.505-.3158-18.3383,4.118-20.282a.82.82,0,0,0-.3287-1.57Z"/>
      </g>
      <g>
        <path class="d" d="M72.0215,25.0861a1.09,1.09,0,0,0-.796.3441C49.6933,48.3409,42.4188,68.8993,48.3317,90.1284c5.2075,18.6914,19.8077,35.0017,35.2658,52.27,36.206,40.4445,73.6444,82.2666-9.7437,159.3439a1.0928,1.0928,0,0,0,1.4833,1.6051c37.9516-35.08,54.4183-66.3043,50.3419-95.4588-3.6057-25.7856-22.3377-46.7111-40.453-66.9477C55.2306,107.4337,26.8988,75.7848,72.8176,26.9278a1.093,1.093,0,0,0-.796-1.8413Z"/>
        <path class="d" d="M100.0705,52.29a1.0924,1.0924,0,0,0-.81,1.8263c21.9718,24.2528,25.0269,52.41,23.7208,71.76-2.433,36.054-20.5483,66.7962-36.3489,80.102a1.0932,1.0932,0,1,0,1.4086,1.6722h0c16.1421-13.5945,34.6447-44.9365,37.1215-81.6269,1.9137-28.3553-6.4828-53.7278-24.2822-73.3745A1.09,1.09,0,0,0,100.0705,52.29Z"/>
        <path class="j" d="M146.0587,117.2786a20.1654,20.1654,0,0,0-5.2073,4.5162c-.8355,1.1083-1.8816,3.4452-3.666,3.6743a3.412,3.412,0,0,1-2.9143-.8812c-2.6387-2.8876-2.44-6.99-6.6294-11.1463a2.7676,2.7676,0,0,0-.7227-.5268c1.3484,3.49,3.7857,12.0557-1.853,19.3951a20.1671,20.1671,0,0,0-5.9043-3.5567c-1.3123-.4521-3.8579-.7249-4.6272-2.3512a3.413,3.413,0,0,1-.0628-3.044c1.9312-3.4019,5.8943-4.48,8.5525-9.7491a2.7715,2.7715,0,0,0,.2776-.85c-2.9022,2.3608-10.2958,7.3259-19.0185,4.2312a20.1576,20.1576,0,0,0,1.5581-6.7144c.0244-1.3877-.5027-3.8932.8061-5.1274a3.4134,3.4134,0,0,1,2.876-1c3.832.7852,6.082,4.2214,11.9146,5.1211a2.765,2.765,0,0,0,.8945.0013c-3.1421-2.0306-10.1489-7.528-9.9011-16.78a20.16,20.16,0,0,0,6.8671-.5929c1.3274-.4056,3.5474-1.6812,5.1258-.8177a3.4128,3.4128,0,0,1,1.84,2.4259c.4374,3.8871-2.1352,7.0889-1.1886,12.9141a2.7654,2.7654,0,0,0,.2771.8543c.9551-3.6064,4.0073-11.9776,12.8975-14.6051a20.1566,20.1566,0,0,0,2.6859,6.3468c.7959,1.1371,2.6951,2.8542,2.3613,4.6221a3.4118,3.4118,0,0,1-1.7385,2.5c-3.5618,1.6172-7.4016.16-12.6492,2.86a2.772,2.772,0,0,0-.7243.5246C131.9211,109.3188,140.821,109.6479,146.0587,117.2786Z"/>
        <path class="k" d="M72.8326,22.4351a2.7747,2.7747,0,0,0-.4356.7812c3.3013-1.76,11.51-5.2135,19.4771-.502a20.17,20.17,0,0,0-2.8181,6.29c-.29,1.3573-.2539,3.9174-1.7754,4.8774a3.4129,3.4129,0,0,1-3.0142.43c-3.61-1.5062-5.1587-5.31-10.71-7.3129a2.7694,2.7694,0,0,0-.8777-.173c2.6941,2.5959,8.5155,9.3362,6.4961,18.3686a20.1653,20.1653,0,0,0-6.8532-.7362c-1.3807.1432-3.8042.9691-5.1873-.1814a3.4131,3.4131,0,0,1-1.34-2.7339c.3166-3.8988,3.4563-6.5468,3.6452-12.4458a2.7736,2.7736,0,0,0-.1079-.8917c-1.63,3.356-6.2322,10.9857-15.4612,11.8579a20.1566,20.1566,0,0,0-1.4175-6.7454c-.5627-1.2687-2.0971-3.3184-1.43-4.9894a3.4127,3.4127,0,0,1,2.1861-2.1192c3.8059-.9035,7.2946,1.2639,12.9631-.3791a2.7625,2.7625,0,0,0,.8142-.3781c-3.6953-.5127-12.3738-2.5322-16.0554-11.04a20.16,20.16,0,0,0,5.9773-3.4327c1.0327-.9274,2.508-3.02,4.3032-2.9023a3.4127,3.4127,0,0,1,2.6909,1.4242c2.0354,3.34,1.0523,7.3284,4.3665,12.2116a2.7694,2.7694,0,0,0,.6084.6557C68.2237,18.685,67.4763,9.81,74.4185,3.69A20.1668,20.1668,0,0,0,79.53,8.3137c1.201.6956,3.6471,1.452,4.09,3.1957a3.4117,3.4117,0,0,1-.523,3C80.5494,17.4769,76.4527,17.7741,72.8326,22.4351Z"/>
        <path class="d" d="M42.803,79.7171c-.1955,3.0558-3.3973,2.8691-8.0209-.1263-3.1871-2.0647-10.3227-9.7647-8.44-19.8084,2.11,7.5676,6.3868,11.2711,11.9269,12.9731C43.8319,74.4643,45.5263,78.317,42.803,79.7171Z"/>
        <path class="d" d="M106.0777,60.5414c-.9128,3.2269-3.9071,3.3933-7.5824-1.3492a50.6454,50.6454,0,0,1-7.9509-14.38,50.6443,50.6443,0,0,1,14.2793,8.1308C109.52,56.6773,109.3163,59.6692,106.0777,60.5414Z"/>
        <path class="d" d="M53.699,78.55c.9854,2.8992,3.7237,2.9089,6.85-1.59,2.1671-3.1184,3.3763-7.8959,4.5211-14.6942-3.7859,6.3827-7.5234,7.06-11.123,9.6666C49.51,75.1455,50.705,77.9084,53.699,78.55Z"/>
        <path class="d" d="M39.2805,76.5745a.82.82,0,0,0-.2316,1.606C44.24,79.708,48.623,90.9961,50.2728,95.2461a14.3673,14.3673,0,0,0,.9444,2.2089.82.82,0,0,0,1.3477-.9332c-.1078-.1787-.4418-1.0383-.764-1.869-1.8931-4.875-6.3246-16.2893-12.2889-18.0452A.8389.8389,0,0,0,39.2805,76.5745Z"/>
        <path class="d" d="M56.4385,74.9354a.817.817,0,0,0-.3286.0688c-5.7987,2.5419-6.8648,14.8319-5.0528,22.1762a.82.82,0,0,0,1.5921-.3927c-1.8525-7.505-.3158-18.3383,4.118-20.282a.82.82,0,0,0-.3287-1.57Z"/>
      </g>
    </g>
    <g>
      <path class="l" d="M160.489,839.8694a33.9274,33.9274,0,0,1-36.4737,48.3,33.542,33.542,0,0,1-34.6829,7.715l-.0022.0006a33.5341,33.5341,0,0,1-22.5439-27.4218,33.5817,33.5817,0,0,1-18.06-30.6356h0a33.5413,33.5413,0,0,1,19.1442-29.93,33.9329,33.9329,0,0,1,57.9059-17.6726,33.9539,33.9539,0,0,1,34.7125,49.6444Z"/>
      <path class="c" d="M160.21,803.0862a35.9333,35.9333,0,0,0-33.61-15.2184,36.1673,36.1673,0,0,0-60.7174,18.5207,36.18,36.18,0,0,0-1.156,63.4686,36.1821,36.1821,0,0,0,60.011,20.7031,36.1652,36.1652,0,0,0,38.2331-50.6528A36.0408,36.0408,0,0,0,160.21,803.0862Zm-31.63,83.3889a32.6774,32.6774,0,0,0,3.2527-4.869A29.3769,29.3769,0,0,0,143.2267,864.72a29.3634,29.3634,0,0,0,13.3015-16.0872,28.9705,28.9705,0,0,0,1.5379-8.5987c.144.2775.3013.5394.4374.8216a31.7442,31.7442,0,0,1-29.9233,45.62Zm-44.149-40.0738a25.6193,25.6193,0,0,1,28.8864-32.7639c-11.3259,10.7671-18.1129,29.0006-6.0147,50.86A25.6907,25.6907,0,0,1,84.4312,846.4013Zm22.5051,22.5425a14.6586,14.6586,0,0,1-4.0188,3.53,18.4917,18.4917,0,0,1-7.417,2.4542,25.1524,25.1524,0,0,1-17.8376-4.9729,24.5309,24.5309,0,0,1-8.5894-12.257,25.2221,25.2221,0,0,1-.1407-14.4221,21.8547,21.8547,0,0,0,3.32,3.6363,18.8412,18.8412,0,0,0,9.0455,4.3917l.2638.0358A30.1771,30.1771,0,0,0,106.9363,868.9438Zm4.7422-5.7088a47.6961,47.6961,0,0,1-5.77-14.9289c8.4386,2.4254,20.2083-1.0835,28.71-8.5728a25.5019,25.5019,0,0,1-22.6814,24.6558,2.18,2.18,0,0,0-.2585-1.1541ZM105.31,843.3313a32.2089,32.2089,0,0,1,1.27-10.7113c5.6349.2726,14.3121,4.7951,15.4513,9.6938-6.0956,2.5138-12.4192,3.0918-16.7212,1.0175Zm13.1067-28.2661A25.5946,25.5946,0,0,1,134.1692,833.95a33.0612,33.0612,0,0,1-8.0834,6.38c-2.2343-6.3515-11.0206-11.1642-17.8841-12.0421A38.2676,38.2676,0,0,1,118.4163,815.0652Zm9.8955.7617a14.5041,14.5041,0,0,1,5.3246-.4829,18.1555,18.1555,0,0,1,7.4146,2.3554,24.7876,24.7876,0,0,1,11.5124,14.4872,24.1863,24.1863,0,0,1-.28,15.0088,25.4716,25.4716,0,0,1-8.3484,11.7271,21.4848,21.4848,0,0,0-.5568-4.8807,18.83,18.83,0,0,0-4.73-8.8991l-.16-.1518a30.0078,30.0078,0,0,0-10.1766-29.164Zm-13.8327,66.8282a25.1524,25.1524,0,0,1-13.758-4.3235,21.0311,21.0311,0,0,0,4.508-2.0387,18.6375,18.6375,0,0,0,6.9491-7.1774l.1333-.2731a29.9106,29.9106,0,0,0,24.6066-18.6977,14.5814,14.5814,0,0,1,2.1111,4.9029,18.962,18.962,0,0,1,.083,7.7942,24.9,24.9,0,0,1-10.2628,15.4312,24.3222,24.3222,0,0,1-14.37,4.3821Zm-44.677-10.4012a31.9356,31.9356,0,0,0,5.6757,1.5866,29.1793,29.1793,0,0,0,19.4944,5.5933,29.4432,29.4432,0,0,0,19.4472,7.686,28.9926,28.9926,0,0,0,8.6941-1.1963c-.2168.2234-.4213.4566-.6448.673a31.7652,31.7652,0,0,1-52.6666-14.3426ZM65.177,811.9484a33.2663,33.2663,0,0,0,.23,5.8394,29.2975,29.2975,0,0,0,.71,20.3676,29.41,29.41,0,0,0-1.3064,20.8691,29.0094,29.0094,0,0,0,3.8323,7.8625c-.2818-.14-.5668-.26-.8446-.4078a31.77,31.77,0,0,1-2.6214-54.5308Zm8.1585.0655a24.2447,24.2447,0,0,1,5.4323-5.2469A25.6674,25.6674,0,0,1,92.47,802.1692a22.1235,22.1235,0,0,0-2.4529,4.3152,19.1113,19.1113,0,0,0-1.3612,10.0145l.0359.1852a30.13,30.13,0,0,0-8.8932,29.5786,14.7444,14.7444,0,0,1-4.6177-2.7205,18.5634,18.5634,0,0,1-4.6229-6.3,25.1268,25.1268,0,0,1-.7756-18.52,24.2556,24.2556,0,0,1,3.5527-6.7083Zm47.7743-23.093a33.1516,33.1516,0,0,0-5.4637,2.0066,29.3986,29.3986,0,0,0-19.1736,6.9687,29.4568,29.4568,0,0,0-20.277,5.22,28.3192,28.3192,0,0,0-6.2692,6.0447c.0449-.3008.07-.6.1237-.9015a31.7562,31.7562,0,0,1,51.06-19.339Zm2.42,7.7739a24.3414,24.3414,0,0,1,6.7239,3.5871,25.539,25.539,0,0,1,8.5679,11.5888,21.2344,21.2344,0,0,0-4.7957-.9732,18.7126,18.7126,0,0,0-9.9558,1.7454l-.2077.1111a29.8229,29.8229,0,0,0-30.8749.6551,14.7485,14.7485,0,0,1,1.1432-5.1874A18.8343,18.8343,0,0,1,98.7,801.8482a25.2434,25.2434,0,0,1,17.4158-6.4713,23.4907,23.4907,0,0,1,7.4142,1.3178Zm36.7474,38.2893a32.9413,32.9413,0,0,0-3.6247-4.6123,29.43,29.43,0,0,0-12.5378-16.032,29.31,29.31,0,0,0-11.1716-17.62,28.7,28.7,0,0,0-7.7111-4.1493c.295-.049.5843-.1167.8832-.16a31.755,31.755,0,0,1,34.1621,42.5741Z"/>
    </g>
    <g>
      <path class="b" d="M101.8754,567.0591a23.2813,23.2813,0,0,1-9.5638,40.4161,23.017,23.017,0,0,1-19.6533,14.4293l-.0011.001A23.0114,23.0114,0,0,1,50.92,610.911a23.0438,23.0438,0,0,1-19.8088-14.2525h0a23.0161,23.0161,0,0,1,3.7546-24.09,23.2851,23.2851,0,0,1,31.4888-27.1,23.3,23.3,0,0,1,35.5211,21.591Z"/>
      <path class="c" d="M91.5363,544.032a24.658,24.658,0,0,0-25.316-.272A24.8184,24.8184,0,0,0,33.2,572.17a24.8272,24.8272,0,0,0,16.8113,40.1853,24.8286,24.8286,0,0,0,43.4146-3.578,24.8168,24.8168,0,0,0,10.0188-42.38A24.731,24.731,0,0,0,91.5363,544.032ZM94.7109,605.15a22.4085,22.4085,0,0,0,.6977-3.957,20.1585,20.1585,0,0,0,2.4907-13.7548,20.1487,20.1487,0,0,0,3.91-13.78,19.8768,19.8768,0,0,0-1.41-5.826c.167.1345.3382.2556.5017.3952a21.7829,21.7829,0,0,1-6.19,36.9226Zm-38.8041-12.972a17.58,17.58,0,0,1,9.0911-28.5618c-4.1389,9.8924-3.3637,23.2206,10.2754,33.6081a17.6293,17.6293,0,0,1-19.3663-5.0464Zm20.3649,7.9408a10.0605,10.0605,0,0,1-1.5489,3.3279,12.6893,12.6893,0,0,1-3.9806,3.5911,17.26,17.26,0,0,1-12.5782,1.8052,16.8343,16.8343,0,0,1-8.782-5.3255,17.3076,17.3076,0,0,1-4.0733-9.02,14.9989,14.9989,0,0,0,3.09,1.3667,12.9274,12.9274,0,0,0,6.8951.259l.1756-.05a20.7075,20.7075,0,0,0,20.8025,4.0459Zm1.4011-4.896a32.7359,32.7359,0,0,1-7.7491-7.783c5.9706-.8083,12.3938-6.2644,15.6644-13.3177a17.5,17.5,0,0,1-7.4339,21.754,1.4942,1.4942,0,0,0-.4812-.6534Zm-9.5-10.7421a22.1084,22.1084,0,0,1-2.1624-7.0788c3.6148-1.3858,10.3147-.9427,12.3839,1.8194-3.1338,3.2632-6.9461,5.3734-10.2214,5.2593Zm.4221-21.376a17.5641,17.5641,0,0,1,15.1127,7.5087,22.6843,22.6843,0,0,1-3.3146,6.2408c-3.1584-3.3722-10.0071-3.9673-14.5608-2.6223a26.2628,26.2628,0,0,1,2.7628-11.1273Zm6.426-2.2559a9.9505,9.9505,0,0,1,3.2111-1.7745,12.457,12.457,0,0,1,5.3081-.5694,17.01,17.01,0,0,1,11.2341,5.9186,16.597,16.597,0,0,1,3.9715,9.5045,17.4782,17.4782,0,0,1-2.0033,9.6729,14.7521,14.7521,0,0,0-1.6983-2.9118,12.9212,12.9212,0,0,0-5.43-4.2827l-.1426-.0511a20.5915,20.5915,0,0,0-14.4507-15.5065Zm9.7771,45.7982a17.2589,17.2589,0,0,1-9.8363,1.0858,14.4224,14.4224,0,0,0,2.2682-2.5261,12.788,12.788,0,0,0,2.3816-6.4285l.0083-.2084a20.5245,20.5245,0,0,0,10.29-18.5435,10.0079,10.0079,0,0,1,2.6808,2.4962,13.0129,13.0129,0,0,1,2.2062,4.8727,17.0861,17.0861,0,0,1-2.1824,12.5285,16.6888,16.6888,0,0,1-7.8154,6.7232Zm-30.9365,5.8117a21.9048,21.9048,0,0,0,4.0035-.5717,20.0224,20.0224,0,0,0,13.79-1.8733,20.205,20.205,0,0,0,14.339-.5458,19.8982,19.8982,0,0,0,5.13-3.1538c-.0744.2-.1384.4032-.219.6009a21.7976,21.7976,0,0,1-37.044,5.5437Zm-19.5684-36.601a22.8353,22.8353,0,0,0,1.7578,3.6044,20.1043,20.1043,0,0,0,6.074,12.5969,20.1824,20.1824,0,0,0,4.9459,13.4692,19.9137,19.9137,0,0,0,4.58,3.88c-.2156-.01-.4278-.0067-.6432-.0228a21.8006,21.8006,0,0,1-16.7142-33.5275Zm5.1426-2.2131a16.6357,16.6357,0,0,1,1.9623-4.7968,17.615,17.615,0,0,1,7.3364-6.6742,15.1923,15.1923,0,0,0-.3484,3.3882,13.1142,13.1142,0,0,0,1.9122,6.6666l.0737.1063a20.6754,20.6754,0,0,0,2.5871,21.0363,10.1171,10.1171,0,0,1-3.6523-.4329,12.7385,12.7385,0,0,1-4.6443-2.6795A17.242,17.242,0,0,1,39.0578,578.84a16.6471,16.6471,0,0,1,.3785-5.1955Zm23.627-27.706a22.752,22.752,0,0,0-2.8774,2.77,20.1738,20.1738,0,0,0-10.1177,9.6753,20.2134,20.2134,0,0,0-11.2938,8.8824,19.427,19.427,0,0,0-2.2676,5.5291c-.0549-.2014-.1219-.3963-.1714-.6006a21.7916,21.7916,0,0,1,26.7281-26.2558Zm3.6679,4.2143a16.7048,16.7048,0,0,1,5.2145.3952A17.5258,17.5258,0,0,1,80.529,555.46a14.5722,14.5722,0,0,0-3.2812.7138,12.8422,12.8422,0,0,0-5.7712,3.8473l-.1.1271a20.4649,20.4649,0,0,0-19.2121,8.9427,10.1225,10.1225,0,0,1-.7153-3.5741,12.9234,12.9234,0,0,1,1.1087-5.2658,17.3219,17.3219,0,0,1,9.151-8.877,16.1192,16.1192,0,0,1,5.0218-1.2211Zm33.6617,13.8963a22.6034,22.6034,0,0,0-3.5512-1.8955,20.1941,20.1941,0,0,0-12.3048-6.6056A20.1133,20.1133,0,0,0,72.65,547.5672a19.69,19.69,0,0,0-5.99-.4755c.1718-.1124.3347-.2347.5106-.3447a21.79,21.79,0,0,1,33.2213,17.3021Z"/>
    </g>
    <g>
      <path class="l" d="M195.2594,204.0427a30.0027,30.0027,0,0,1-43.0478,31.8051,29.6617,29.6617,0,0,1-31.346-2.16h-.002a29.6548,29.6548,0,0,1-12.2367-28.9093,29.6969,29.6969,0,0,1-7.6275-30.51h0a29.6613,29.6613,0,0,1,23.7437-20.5767,30.0075,30.0075,0,0,1,53.5373-.4562,30.026,30.026,0,0,1,16.979,50.8071Z"/>
      <path class="c" d="M204.2524,172.7814a31.7765,31.7765,0,0,0-24.6819-21.3379,31.9835,31.9835,0,0,0-56.134.47,31.9948,31.9948,0,0,0-16.9054,53.53,31.9966,31.9966,0,0,0,45.6933,32.6132,31.9815,31.9815,0,0,0,45.13-33.3591A31.8716,31.8716,0,0,0,204.2524,172.7814ZM156.508,235.5571a28.8965,28.8965,0,0,0,3.98-3.3127,25.9785,25.9785,0,0,0,13.8984-11.46,25.9654,25.9654,0,0,0,15.3157-10.304,25.613,25.613,0,0,0,3.4617-6.9055c.0526.2713.12.5329.1648.8063a28.0718,28.0718,0,0,1-36.8207,31.1762Zm-27.3826-45.0593a22.6558,22.6558,0,0,1,32.7158-20.5351c-12.3056,6.2883-22.6358,20.047-17.8616,41.6189a22.7188,22.7188,0,0,1-14.8542-21.0838ZM142.5532,215.26a12.9623,12.9623,0,0,1-4.2937,1.9852,16.3516,16.3516,0,0,1-6.9052.22,22.2426,22.2426,0,0,1-13.8781-8.6926,21.6916,21.6916,0,0,1-4.2082-12.5488,22.3037,22.3037,0,0,1,3.4993-12.2648,19.3347,19.3347,0,0,0,1.9029,3.9165,16.6636,16.6636,0,0,0,6.5684,5.9937l.2148.0965a26.6861,26.6861,0,0,0,17.1,21.2943Zm5.4535-3.651A42.1866,42.1866,0,0,1,146.86,197.502c6.5471,4.174,17.408,4.1517,26.4962-.0659a22.5511,22.5511,0,0,1-25.42,15.2164,1.9246,1.9246,0,0,0,.07-1.0434ZM147.6,193.1332a28.4868,28.4868,0,0,1,3.7641-8.7645c4.71,1.6451,10.9332,7.6572,10.67,12.0971C156.235,197.0681,150.7278,195.9714,147.6,193.1332Zm18.2063-20.68a22.6344,22.6344,0,0,1,8.62,19.966,29.2343,29.2343,0,0,1-8.4553,3.3814c-.301-5.9465-6.544-12.2321-12.1438-14.6987a33.8433,33.8433,0,0,1,11.9789-8.6491Zm8.2,3.1288a12.8242,12.8242,0,0,1,4.6364.9265,16.0564,16.0564,0,0,1,5.6965,3.8577,21.92,21.92,0,0,1,6.1272,15.1734,21.3883,21.3883,0,0,1-4.0031,12.6569,22.5238,22.5238,0,0,1-10.0217,7.85,19.0063,19.0063,0,0,0,.7526-4.2783,16.652,16.652,0,0,0-1.778-8.733l-.0978-.169a26.5359,26.5359,0,0,0-1.3121-27.2838ZM145.5088,228.78a22.24,22.24,0,0,1-10.5816-7.1183,18.6006,18.6006,0,0,0,4.3342-.5976,16.4806,16.4806,0,0,0,7.6935-4.3427l.1816-.1982a26.45,26.45,0,0,0,25.5573-9.6811,12.8964,12.8964,0,0,1,.56,4.6873,16.7675,16.7675,0,0,1-1.8852,6.63,22.02,22.02,0,0,1-12.5745,10.51,21.5073,21.5073,0,0,1-13.2852.11Zm-35.2752-20.03a28.2245,28.2245,0,0,0,4.4148,2.77,25.8035,25.8035,0,0,0,15.1272,9.6343,26.0374,26.0374,0,0,0,14.5624,11.3971,25.6368,25.6368,0,0,0,7.6726,1.167c-.24.1351-.4718.2815-.7157.4089A28.0907,28.0907,0,0,1,110.2336,208.75Zm11.2093-52.2981a29.4386,29.4386,0,0,0-1.27,5.0093,25.9091,25.9091,0,0,0-4.5081,17.45,26.0081,26.0081,0,0,0-6.344,17.3687,25.6509,25.6509,0,0,0,1.2769,7.6288c-.204-.1891-.4154-.3626-.6139-.5578a28.0946,28.0946,0,0,1,11.46-46.8985Zm6.9018,2.1027a21.4381,21.4381,0,0,1,5.923-3.0863,22.6984,22.6984,0,0,1,12.7731-.4607,19.59,19.59,0,0,0-3.1627,3.0436,16.9021,16.9021,0,0,0-3.6672,8.1507l-.0159.166a26.6444,26.6444,0,0,0-14.9629,22.8506,13.0356,13.0356,0,0,1-3.2331-3.4657,16.4155,16.4155,0,0,1-2.3394-6.5018,22.2194,22.2194,0,0,1,3.9892-15.8992,21.4489,21.4489,0,0,1,4.6959-4.7976Zm46.3058-7.5952a29.3159,29.3159,0,0,0-5.1365.3306,25.9985,25.9985,0,0,0-18.0077,1.0983,26.0493,26.0493,0,0,0-18.5043-.6611,25.0409,25.0409,0,0,0-6.8328,3.5527c.1137-.2438.21-.4914.3313-.7334a28.0827,28.0827,0,0,1,48.15-3.5875Zm.1013,7.1992a21.5273,21.5273,0,0,1,4.8017,4.7288,22.5845,22.5845,0,0,1,4.3575,11.9769,18.7817,18.7817,0,0,0-3.8224-2.0286,16.55,16.55,0,0,0-8.88-1.018l-.204.0422a26.3731,26.3731,0,0,0-26.3455-7.1914,13.0423,13.0423,0,0,1,2.2709-4.1119,16.6542,16.6542,0,0,1,5.4735-4.2582,22.3222,22.3222,0,0,1,16.3918-1.1177,20.7693,20.7693,0,0,1,5.9565,2.9775Zm21.5537,41.6887a29.1289,29.1289,0,0,0-1.9164-4.82,26.0255,26.0255,0,0,0-6.6091-16.7407,25.92,25.92,0,0,0-5.0522-17.7447,25.3781,25.3781,0,0,0-5.4977-5.4534c.2625.0325.5248.0477.7892.0859a28.0814,28.0814,0,0,1,18.2862,44.6734Z"/>
    </g>
  </g>
</svg>