<?xml version="1.0" standalone="no"?>
<!DOCTYPE svg PUBLIC "-//W3C//DTD SVG 20010904//EN"
 "http://www.w3.org/TR/2001/REC-SVG-20010904/DTD/svg10.dtd">
<svg version="1.0" xmlns="http://www.w3.org/2000/svg"
 width="840px" height="849px" viewBox="0 0 840 849"
 preserveAspectRatio="xMidYMid meet">
<g transform="translate(0,849) scale(0.1,-0.1)" fill="black" stroke="none">
<path fill="firebrick" d="M1030 7490 l0 -1000 3135 0 3135 0 0 1000 0 1000 -3135 0 -3135 0 0
-1000z m5590 410 l0 -210 -2465 0 -2465 0 0 210 0 210 2465 0 2465 0 0 -210z
m0 -805 l0 -215 -2465 0 -2465 0 0 215 0 215 2465 0 2465 0 0 -215z"/>
<g fill="forestgreen">
<path d="M640 5865 l0 -235 1590 0 1590 0 0 -200 0 -200 -1815 0 -1815 0 0
-660 0 -660 310 0 310 0 0 430 0 430 1505 0 1505 0 0 -790 0 -790 335 0 335 0
2 788 3 787 1543 3 1542 2 0 -430 0 -430 325 0 325 0 0 660 0 660 -1870 0
-1870 0 0 200 0 200 1650 0 1650 0 0 235 0 235 -3575 0 -3575 0 0 -235z"/>
<path d="M1320 4215 l0 -185 995 0 995 0 0 185 0 185 -995 0 -995 0 0 -185z"/>
<path d="M5000 4215 l0 -185 1040 0 1040 0 0 185 0 185 -1040 0 -1040 0 0 -185z"/>
<path d="M1130 3485 l0 -185 1090 0 1090 0 0 185 0 185 -1090 0 -1090 0 0 -185z"/>
<path d="M5000 3470 l0 -180 1160 0 1160 0 0 180 0 180 -1160 0 -1160 0 0 -180z"/>
</g>
<g fill="royalblue">
<path d="M1020 2685 l0 -225 3225 0 3225 0 0 225 0 225 -3225 0 -3225 0 0 -225z"/>
<path d="M0 1795 l0 -245 1255 0 c690 0 1255 -4 1255 -8 0 -13 -272 -420 -393
-589 l-109 -151 -121 -6 c-67 -3 -385 -8 -707 -12 -322 -3 -587 -8 -589 -10
-4 -4 29 -526 34 -532 3 -4 1903 43 3200 78 829 23 2105 63 2703 85 l403 15
192 -129 c106 -71 237 -163 291 -205 60 -45 104 -72 110 -67 6 4 121 90 256
191 135 100 249 186 253 190 18 16 -457 311 -858 534 -247 138 -838 433 -1078
537 l-168 74 1235 3 1236 2 0 245 0 245 -4200 0 -4200 0 0 -245z m5464 -254
c-5 -5 -79 -57 -164 -116 -85 -59 -156 -109 -158 -110 -2 -2 41 -20 95 -40
156 -60 383 -160 573 -252 96 -47 204 -98 239 -115 35 -16 61 -31 59 -33 -2
-3 -692 -18 -1534 -34 -841 -17 -1591 -32 -1666 -34 -76 -2 -138 0 -138 4 0 5
39 55 86 111 87 104 297 379 413 541 l62 87 1072 0 c627 0 1067 -4 1061 -9z"/>
</g>
</g>
</svg>
