<?xml version="1.0" encoding="utf-8"?><!DOCTYPE svg PUBLIC "-//W3C//DTD SVG 1.1//EN" "http://www.w3.org/Graphics/SVG/1.1/DTD/svg11.dtd"><svg version="1.1" xmlns="http://www.w3.org/2000/svg" xmlns:xlink="http://www.w3.org/1999/xlink" x="0px" y="0px" viewBox="0 0 1000 1000" enable-background="new 0 0 1000 1000" xml:space="preserve"><g><g transform="translate(0.000000,511.000000) scale(0.100000,-0.100000)"><path d="M7656.1,4963.7c-229-95.9-388.1-259.5-471-488.4c-45.8-122.1-56.7-130.8-942-876.6l-896.2-752.3l-394.7-2.2c-329.3-2.2-425.2-10.9-577.9-50.1c-226.8-58.9-508.1-187.5-684.7-316.2c-74.2-52.3-863.5-826.4-1753.2-1718.3C418.6-762.6,316.2-869.5,242-1017.8c-43.6-87.2-93.8-220.2-111.2-294.4c-41.4-181-41.4-481.9,2.2-678.2c39.2-174.5,163.5-457.9,272.6-619.3c89.4-135.2,1570.1-1626.7,1783.7-1799c309.7-248.6,608.4-364.2,983.5-381.6c298.8-13.1,466.7,19.6,702.2,137.4c150.5,74.1,257.3,176.6,1790.3,1705.3C6568-2047,7335.6-1262,7383.5-1192.2c122.1,174.5,250.8,451.4,307.5,658.6c41.4,150.4,48,233.3,48,577.9l2.2,405.6l752.3,896.3c715.2,850.4,756.7,898.4,859.2,933.3c218.1,74.1,388.2,226.8,490.6,444.8c50.2,106.9,56.7,148.3,56.7,351.1c0,213.7-4.4,239.9-72,381.6c-65.4,139.5-130.8,209.3-697.8,778.5c-571.3,571.3-638.9,632.4-778.5,697.8c-133,61.1-178.8,72-359.8,78.5C7811,5016,7769.5,5011.7,7656.1,4963.7z M8072.6,4381.4c78.5-28.3,1151.4-1096.9,1195-1188.4c104.7-222.4-96-418.7-311.8-305.3C8886,2927,7811,4004.2,7776.1,4071.8c-45.8,89.4-28.3,200.6,39.3,270.4C7885.1,4409.8,7963.6,4422.9,8072.6,4381.4z M8157.7,3247.5l614.9-614.9L8521.8,2336c-137.4-163.5-525.5-623.7-861.3-1022.7l-608.4-724l39.2-170.1c50.2-218.1,50.2-595.3,0-789.4c-67.6-255.1-178.8-447-381.6-658.6c-102.5-104.7-194.1-191.9-205-191.9c-19.6,0-1587.5,1561.3-2448.8,2437.9l-392.5,401.2l196.3,189.7c215.9,209.4,407.8,320.6,665.1,386c196.3,50.2,551.7,50.2,778.5,0l178.8-41.4l377.2,318.4c207.2,174.4,662.9,558.2,1009.6,850.4c348.9,294.4,641.1,536.4,654.2,536.4C7534,3860.3,7821.9,3583.3,8157.7,3247.5z M5469-2271.6l-824.3-824.3L3222.9-1674.1L1799-250.2l822.1,822.1l824.3,824.3L4867.1-25.6l1423.9-1423.9L5469-2271.6z M3009.2-1896.6L4426.6-3314L4045-3695.6c-416.5-416.5-490.6-466.7-730.5-486.3c-174.4-13.1-346.7,26.2-540.8,119.9c-143.9,72-224.6,146.1-1009.6,931.1c-785,785-859.2,865.7-931.1,1009.6c-93.8,194.1-133,366.3-117.8,540.8c17.5,237.7,67.6,311.8,479.7,726.1c205,205,379.4,375.1,386,375.1S2230.7-1115.9,3009.2-1896.6z"/></g></g></svg>
